# xmcd
#
# Track frame offsets:
#	150
#	16409
#	35383
#	46531
#	61521
#	83278
#	99133
#	118094
#	139024
#	154044
#	169957
#	188344
#	199199
#	212130
#
# Disc length: 3061 seconds
#
# Revision: 1
# Processed by: cddbd v1.5.1PL0 Copyright (c) Steve Scherf et al.
# Submitted via: EasyCDDAExtractor 6.2.0.3
#
DISCID=a00bf30e
DTITLE=Grupo Catira Brasil - Grupo Catira Brasil and Amigos
DYEAR=2005
DGENRE=Country
TTITLE0=Marcos Violeiro and Adalberto - Pagode Novo
TTITLE1=Zé Do Cedro and João Pinheiro - Campeão Paulista
TTITLE2=Mococa and Paraíso - Morena Dos Olhos Pretos
TTITLE3=Vail and Zé Matão - O Invejoso E O Caloteiro
TTITLE4=Tião Goday and João Martins - Vida De Carreiro
TTITLE5=Pirajá and Pratini - Patrono Dos Catireiros
TTITLE6=Eli Silva and Zé Goiano - Etc... E Tal
TTITLE7=Zé Do Cedro and Ditinho - Viola Caboclinha
TTITLE8=Luiz Faria and Silva Neto - Sarna De Carrapato
TTITLE9=Castro and Zé Cruzeiro - Pra Cantar Não Tenho Hora
TTITLE10=Sulino and Olavo Honório - Punhal Da Saudade
TTITLE11=Vieira and Vieira Jr. - Pau Cumprido E Buraco Fundo
TTITLE12=Francisco and Fernando - Mineiro De Monte Belo
TTITLE13=Pedro Bento and Zé Da Estrada - Ei Barretos
EXTD=by Flávio Abrahão Biasuz
EXTT0=
EXTT1=
EXTT2=
EXTT3=
EXTT4=
EXTT5=
EXTT6=
EXTT7=
EXTT8=
EXTT9=
EXTT10=
EXTT11=
EXTT12=
EXTT13=
PLAYORDER=
